<svg xmlns="http://www.w3.org/2000/svg" viewBox="0 0 500 630"><defs><style>.cls-1{fill:#ffead4;}.cls-2{fill:#5b362a;}.cls-3{fill:#f6af62;}.cls-4{fill:#fbd872;}.cls-5{fill:#2a2d59;}.cls-6{fill:#ff7139;}.cls-7{fill:#ff5e0d;}.cls-8{fill:#ffe1e1;}.cls-9{fill:red;}.cls-10{fill:#f88;}.cls-11{fill:#f93232;}.cls-12{fill:#84642d;}.cls-13{fill:#fff;stroke:#020202;stroke-miterlimit:10;stroke-width:3px;}</style></defs><title>homme</title><g id="homme-torche"><g id="Corps-2" data-name="Corps"><path class="cls-1" d="M490.6,467,388.1,385.2h-1.2c-23.3,13.8-53.4,22.1-89.9,22.1-32.5,0-60.5-7.9-82.7-21h-.5L106,464.3c-10.1,11.3-3.1,65.5,32.9,47.5L188,487.3l12.9,116.4c.6,31.7,48.5,43.5,68-5.1,6-14.7,19.4-15.8,31.6-15.3,14.2.5,26.7,4.9,34,21,20,44.3,64.9,26.5,64.5.3l13-117.3s32.8,21.2,54.6,26.5C502.5,522.6,504.8,475.6,490.6,467Z"/><path class="cls-1" d="M386.9,385.2c37.4-22.1,57.1-58.5,57.1-97.9,0-64.1-64.5-116-144-116s-144,51.9-144,116c0,40.1,21.2,77,58.3,99,22.2,13.1,50.2,21,82.7,21C333.5,407.3,363.6,399,386.9,385.2Z"/></g><g id="Armes-2" data-name="Armes"><path class="cls-2" d="M142.3,521.1,117.7,405.5l21.4-4.6,24.6,115.7Z"/><path class="cls-3" d="M64,295.1s-.7,32,3.6,40.1c0,0-4.4-47.6,25.6-90.2,0,0,4.2,30.5,25.8,42.6s30.1,35.2,30.1,35.2-.7-16.8-11.7-41.8c0,0,47.6,34.7,37.3,84.6,0,0-13.1,55.3-80.8,44S54,305.1,64,295.1Z"/><path class="cls-4" d="M138.9,322.7c2.9,13-2.4,17.5-7.1,19a14.5,14.5,0,0,1-9.2-.2c-28.9-9.7-21.5-47-21.5-47-14.3,19.5.7,52.2.7,52.2s8.8,18.5-1.9,22.2c-5.3,1.8-8.2,0-9.8-2.1a8.9,8.9,0,0,1-1.4-7.1c4.2-19.7-4-29-4-29-1.7,11.2-4.2,18.8-6.2,23.5a40.6,40.6,0,0,0-3.2,20.9c3.4,26.5,27.3,33.2,27.3,33.2,39.5,12,49.8-24.6,49.8-24.6C164.8,344.4,138.9,322.7,138.9,322.7Z"/></g><g id="Vêtements-2" data-name="Vêtements"><path class="cls-5" d="M193,536.6s.3,8.9,1.6,24c3,34,5.1,39.4,6.3,43.1,17.8,52.2,57.1,20.9,68-5.1,7.3-14.1,19.4-15.8,31.6-15.3,14.2.5,26.7,4.9,34,21,20,44.3,64.9,26.5,64.5.3,3.1-7.8,5.4-28.4,6.9-47,.9-11.9,1.4-20,1.4-20Z"/><path class="cls-6" d="M475,454l-86.2-68.8h-1.2c-23.3,13.8-53.4,22.1-89.9,22.1-32.6,0-82.7-21-82.7-21h-.5c-4,.6-68.2,49.3-68.2,49.3s15.1,66.8,15.7,67.7,26.7-16,26.7-16l.8,49,222,.5,1.2-49.5,25.2,16.6Z"/></g><g id="Casque-2" data-name="Casque"><g id="Labor_Day" data-name="Labor Day"><path class="cls-6" d="M398.9,136.8v-7.4l-28-22.4-7.8,4.3v.2a143.3,143.3,0,0,0-35.7-12.1l-2.2-13.7H274.4l-2.3,13.7a138.9,138.9,0,0,0-35.3,12h0l-7.7-4.3-28,22.4v7.1a142.1,142.1,0,0,0-43.7,102.6H442.3A142,142,0,0,0,398.9,136.8Z"/><rect class="cls-7" x="141.5" y="232.8" width="316.7" height="40.7"/><path class="cls-8" d="M263.5,101.4l-4.4,111.3L272.7,99.3C269.6,99.9,266.5,100.6,263.5,101.4Z"/><path class="cls-7" d="M340.6,212.7,336,101.3c-3-.8-6-1.4-9-2Z"/><path class="cls-9" d="M157.5,233H442.2c-.2-3.6-.5-7.2-.9-10.7L157.5,232.9Z"/><polygon class="cls-7" points="234.7 174.2 243.5 108.3 236.8 111.3 229.1 107 234.7 174.2"/><polygon class="cls-8" points="201.1 178.8 201.1 136.5 197.2 140.4 201.1 178.8"/><polygon class="cls-7" points="365.3 174.2 370.9 107 363.1 111.3 356.5 108.3 365.3 174.2"/><polygon class="cls-8" points="398.9 178.8 402.8 140.4 398.9 136.5 398.9 178.8"/></g></g><g id="Visage-2" data-name="Visage"><circle class="cls-10" cx="297" cy="363.3" r="19"/><path class="cls-11" d="M297.4,382.5c-9.1-1-16-5.6-16.7-9.9s9.2-8.7,16.8-8.7,17.4,4,16.1,8.5S305.4,381.3,297.4,382.5Z"/></g><g id="Yeux-2" data-name="Yeux"><line class="cls-12" x1="188" y1="229.3" x2="278" y2="273.3"/><polygon class="cls-12" points="193.5 218 278 273.3 182.5 240.5 193.5 218"/><line class="cls-12" x1="407" y1="228.8" x2="317" y2="272.8"/><polygon class="cls-12" points="412.5 240 317 272.8 401.5 217.5 412.5 240"/><path class="cls-13" d="M275.6,300s-8.9,32-39.1,30.8c-25.5,1.5-41.6-20.4-40.8-40.8.2-4.9,5.2-20.6,5.2-20.6Z"/><path d="M256.6,299.9c-.5,8.7-7.9,20.3-20.3,20.3a20.3,20.3,0,0,1-20.4-20.3c0-7.8,3.8-17.5,11.2-18.2s19.5,6.5,27.8,9.4C255.7,291.4,256.9,295.3,256.6,299.9Z"/><path class="cls-13" d="M317.7,300s8.9,32,39.1,30.8c25.5,1.5,41.6-20.4,40.8-40.8-.2-4.9-5.2-20.6-5.2-20.6Z"/><path d="M336.7,299.9c.5,8.7,7.9,20.3,20.3,20.3a20.3,20.3,0,0,0,20.4-20.3c0-7.8-3.8-17.5-11.2-18.2s-19.5,6.5-27.8,9.4C337.6,291.4,336.4,295.3,336.7,299.9Z"/></g></g></svg>