<svg xmlns="http://www.w3.org/2000/svg" viewBox="0 0 54.4 63.1"><defs><style>.cls-1{fill:#abffab;}.cls-2{fill:#00c800;}.cls-3{fill:#00e800;}.cls-4{fill:#4df74d;}.cls-5{fill:#414242;}.cls-6{fill:#fff;}</style></defs><title>logo</title><g id="Fond"><g id="layer1"><g id="g7546"><g id="g7135"><path id="path7137" class="cls-1" d="M32.1,63.5a4.3,4.3,0,0,1-2.5-.7L7.2,49.6a5.1,5.1,0,0,1-2.4-4.3V18.7a5.1,5.1,0,0,1,2.4-4.3L29.6,1.2a4.6,4.6,0,0,1,4.8,0L56.8,14.4a5.1,5.1,0,0,1,2.4,4.3V45.3a5.1,5.1,0,0,1-2.4,4.3L34.4,62.8a4.8,4.8,0,0,1-2.3.7Z" transform="translate(-4.8 -0.5)"/><path id="path7139" class="cls-2" d="M33.5.8c-1.4,1.7-2.2,2.8-1.6,4.8a13.8,13.8,0,0,1,.9-2.3,6,6,0,0,0-.6,2.3,21.2,21.2,0,0,0-2.4,2V4.8c.2-.1.5-.3.5-.5a.6.6,0,0,0-.6-.6h-4a.6.6,0,0,0-.6.6c0,.2.2.4.5.5V17.2h.1a.6.6,0,0,0-.6.5.6.6,0,0,0,.5.6v2.8a15.7,15.7,0,0,0-2.5-2,5.6,5.6,0,0,0-.5-2.3,13.8,13.8,0,0,1,.9,2.3c.6-2.2-.3-3.2-1.9-5.2.6,2.2-.1,3.6,1.1,4.9a27.6,27.6,0,0,0-4.4-2.5l-.3-.2a4.9,4.9,0,0,0-.4-1.8,11.1,11.1,0,0,1,.7,2c.5-1.8-.3-2.7-1.6-4.3.6,1.7,0,2.9.9,3.9l-2.2-1L18,16.3h0l2.1,1.2c-2,.2-2.8,1.4-4.3,3.4,2.2-1.4,4-.9,4.9-2.9a23.4,23.4,0,0,1,4.9,3.9h0v8.7h.1a.6.6,0,0,0-.6.5.6.6,0,0,0,.5.6V44.2h.1a.6.6,0,0,0-.6.5.5.5,0,0,0,.5.5v2.9a11.6,11.6,0,0,0-2.5-2,5.3,5.3,0,0,0-.5-2.3,11,11,0,0,1,.9,2.3c.6-2.2-.3-3.2-1.9-5.2.6,2.1-.1,3.6,1.1,4.9a39.1,39.1,0,0,0-4.4-2.6H18a4.9,4.9,0,0,0-.4-1.8,13.1,13.1,0,0,1,.7,1.9c.5-1.8-.3-2.6-1.6-4.3.6,1.8,0,3,.9,4l-2.2-1L18,43.3h0l2.1,1.2c-2,.1-2.8,1.4-4.3,3.4,2.2-1.4,4-.9,4.9-3a27.6,27.6,0,0,1,4.9,4h0v8.8h.1a.6.6,0,0,0-.6.5.5.5,0,0,0,.5.5v1.8l4,2.3c0,.1.1.1.2.1v-.5a30.9,30.9,0,0,1,4.8-4,3.1,3.1,0,0,0,1,1.2v2.5l4.2-2.4V55.4h0V52.2a.5.5,0,0,0,.5-.5.6.6,0,0,0-.6-.5h.1V42.4l.2-.2,2,1.1h0l2.1,1.2c-2,.1-2.8,1.4-4.3,3.4,2.2-1.4,4-.9,4.9-3a27.6,27.6,0,0,1,4.9,4v4.9l4.2-2.4V45.2a.5.5,0,0,0,.5-.5.6.6,0,0,0-.6-.5h.1V35.4a30.9,30.9,0,0,1,4.8-4,3.5,3.5,0,0,0,.6.9v-.7l-.5-.2.3-.2h.2v-.6l-2.6,1.6c1.2-1.3.5-2.8,1.2-4.9-1.6,2-2.6,3-1.9,5.2a13.8,13.8,0,0,1,.9-2.3,5.6,5.6,0,0,0-.6,2.3,14.1,14.1,0,0,0-2.4,2V31.8c.2-.1.5-.3.5-.6a.6.6,0,0,0-.6-.5h.1V18.3c.2-.1.5-.3.5-.6a.6.6,0,0,0-.6-.5h.1V12.6l-4.2-2.4v7h.1a.6.6,0,0,0-.6.5.6.6,0,0,0,.5.6v2.8a15.7,15.7,0,0,0-2.5-2,5.6,5.6,0,0,0-.5-2.3,13.8,13.8,0,0,1,.9,2.3c.6-2.2-.3-3.2-1.9-5.2.6,2.2-.1,3.6,1.1,4.9a27.6,27.6,0,0,0-4.4-2.5l-.3-.2a4.9,4.9,0,0,0-.4-1.8,11.1,11.1,0,0,1,.7,2,3.3,3.3,0,0,0-.4-2.8,27.8,27.8,0,0,1,2.7-2.1c1,2.1,2.8,1.6,4.9,3-1.4-2-2.2-3.2-4.2-3.4l2.1-1.2h0l.8-.5h-.4c0-.1.1-.1.1-.2l-.4-.3a1.7,1.7,0,0,0-.1.7l-.3.2a33.7,33.7,0,0,0-4.5,2.5c1.2-1.3.5-2.8,1.2-4.9-1.6,2-2.6,3-1.9,5.2a13.8,13.8,0,0,1,.9-2.3,5.6,5.6,0,0,0-.6,2.3l-.6.5L40.7,12a9.9,9.9,0,0,1,.3,1.5l-1.2,1.1V11.8c.2-.1.5-.3.5-.6a.6.6,0,0,0-.6-.5h.1V4.3L35.4,1.7c0,.1.1.2.2.3V3.6l-3,1.7c1.2-1.2.6-2.5,1.1-4.5Zm13.6,9,.3-1-.5-.2A7.4,7.4,0,0,0,47.1,9.8ZM35.6,3.9v.2h-.3l.3-.2Zm-.6.3.6.4h0l-.9-.3Zm-.4.3a4,4,0,0,0,1,1.2v5h.1a.6.6,0,0,0-.6.5.6.6,0,0,0,.5.6V24.2h.1a.6.6,0,0,0-.6.5.5.5,0,0,0,.5.5v2.9a11.6,11.6,0,0,0-2.5-2,5.3,5.3,0,0,0-.5-2.3,11,11,0,0,1,.9,2.3c.6-2.2-.3-3.2-1.9-5.2.6,2.1-.1,3.6,1.1,4.9A28.2,28.2,0,0,0,29.8,24V18.3c.2-.1.5-.3.5-.6a.6.6,0,0,0-.6-.5h.1V8.5a22.7,22.7,0,0,1,4.8-4ZM21.7,5.8l-.7.4,1.1.9-1.2-.8-.6.4c1,1.2,2.6,1,4.4,2.2C23.6,7.4,22.9,6.3,21.7,5.8ZM15.3,9.7l-4.5,2.6v6.4h0a.5.5,0,0,0-.5.5.6.6,0,0,0,.5.6v2.8a14.6,14.6,0,0,0-2.5-2,5.3,5.3,0,0,0-.5-2.3,7.6,7.6,0,0,1,.8,2.3c.7-2.2-.3-3.2-1.9-5.2.7,2.1,0,3.6,1.2,4.9a24.8,24.8,0,0,0-3.1-1.8v.2h0l.5.3H4.8v.6l.7-.5.3.2-1,.4v.9a2.5,2.5,0,0,0,1.1-1.3,27.6,27.6,0,0,1,4.9,4v8.8h0a.5.5,0,1,0,0,1V45.7h0a.5.5,0,1,0,0,1v2.8l-2.5-2a5.6,5.6,0,0,0-.5-2.3,9.6,9.6,0,0,1,.8,2.4c.7-2.2-.3-3.3-1.9-5.2.7,2.1,0,3.6,1.2,4.9L4.8,45.4v.3l.5.3H4.8a.7.7,0,0,1,.1.5l.6-.4.3.2-.8.3a6.4,6.4,0,0,1,.2.7,3.6,3.6,0,0,0,.7-1,27.6,27.6,0,0,1,4.9,4v1.3L15,54.2V46.7a.5.5,0,0,0,.4-.5.5.5,0,0,0-.5-.5H15V36.9a26.8,26.8,0,0,1,4.8-4c1,2.1,2.7,1.6,4.9,3-1.4-2-2.3-3.3-4.2-3.4l2-1.2h.1l2.5-1.4-2.2,1c.9-1,.4-2.2.9-4-1.3,1.7-2.1,2.5-1.5,4.3a6.9,6.9,0,0,1,.7-1.9,10.2,10.2,0,0,0-.5,1.8h-.2c-1.5.8-3,1.6-4.5,2.6,1.2-1.3.5-2.8,1.2-4.9-1.6,2-2.6,3-1.9,5.2a5.5,5.5,0,0,1,.9-2.3,5.6,5.6,0,0,0-.6,2.3,14.1,14.1,0,0,0-2.4,2V33.2a.5.5,0,0,0,.4-.5.5.5,0,0,0-.5-.5H15V19.8a.7.7,0,0,0,.4-.6.5.5,0,0,0-.5-.5H15V10l.3-.3ZM45,11.2a7.8,7.8,0,0,1,1.9,1.4,6.1,6.1,0,0,0-2.2-1.2Zm-4,3a3.2,3.2,0,0,0,.6,1.7L40,15.2Zm-1,1,2,1.1h0l2.1,1.2c-2,.2-2.8,1.4-4.3,3.4,2.2-1.4,4-.9,4.9-2.9a20.9,20.9,0,0,1,4.9,4v8.7h.1a.6.6,0,0,0-.6.5.6.6,0,0,0,.5.6v3.7l-1.8.9c.9-1,.3-2.2.9-4-1.4,1.6-2.2,2.5-1.6,4.3a13.1,13.1,0,0,1,.7-1.9,4.9,4.9,0,0,0-.4,1.8h-.3c-1.5.8-3,1.6-4.5,2.6,1.2-1.3.5-2.8,1.2-4.9-1.6,1.9-2.6,3-1.9,5.2a15.4,15.4,0,0,1,.9-2.4,6,6,0,0,0-.6,2.3l-.6.5-.9-1.1a11,11,0,0,1,.3,1.6l-1.2,1V38.7a.5.5,0,0,0,.5-.5.6.6,0,0,0-.6-.5h.1V28.5c0-.1.1-.1.2-.1s-.2,0-.2.1V25.2a.5.5,0,0,0,.5-.5.6.6,0,0,0-.6-.5h.1V15.4l.2-.2ZM20.3,17.7l.3.2a5.8,5.8,0,0,0-2.1,1.2A9.4,9.4,0,0,1,20.3,17.7Zm24,0,.3.2a5.8,5.8,0,0,0-2.1,1.2A9.4,9.4,0,0,1,44.3,17.7ZM29.8,24.3l.3.2h-.3v-.3Zm.5.4.3.2-.8.3h0Zm.4.2a27.6,27.6,0,0,1,4.9,4v1.6l-3,1.8c1.2-1.3.5-2.8,1.2-4.9-1.6,2-2.6,3-1.9,5.2a13.8,13.8,0,0,1,.9-2.3,5.6,5.6,0,0,0-.6,2.3,14.1,14.1,0,0,0-2.4,2V31.8c.2-.1.5-.3.5-.6a.6.6,0,0,0-.6-.5h.1V26.1a1.9,1.9,0,0,0,.9-1.2Zm4.9,6v.2h0Zm-.6.3.6.4h0l-.9-.3Zm-.4.2a2.5,2.5,0,0,0,1,1.2v5.1h.1a.6.6,0,0,0-.6.5.5.5,0,0,0,.5.5V51.2h.1a.6.6,0,0,0-.6.5.5.5,0,0,0,.5.5V55a24.3,24.3,0,0,0-2.5-2,5.6,5.6,0,0,0-.5-2.3,15.4,15.4,0,0,1,.9,2.4c.6-2.2-.3-3.3-1.9-5.2.6,2.1-.1,3.6,1.1,4.9A17.5,17.5,0,0,0,29.8,51V45.2a.5.5,0,0,0,.5-.5.6.6,0,0,0-.6-.5h.1V35.4a30.9,30.9,0,0,1,4.8-4ZM20.2,32.7,22.1,34a7.5,7.5,0,0,0-2.2-1.1l.3-.2Zm29.4,2.8v8.7h.1a.6.6,0,0,0-.6.5.5.5,0,0,0,.5.5v2.9a11.6,11.6,0,0,0-2.5-2,5.3,5.3,0,0,0-.5-2.3,11,11,0,0,1,.9,2.3c.6-2.2-.3-3.2-1.9-5.2.6,2.1-.1,3.6,1.1,4.9a39.1,39.1,0,0,0-4.4-2.6H42a4.9,4.9,0,0,0-.4-1.8,13.1,13.1,0,0,1,.7,1.9,3.1,3.1,0,0,0-.4-2.7,27.8,27.8,0,0,1,2.7-2.1c1,2.1,2.8,1.6,4.9,3-1.4-2-2.2-3.3-4.2-3.4l2.1-1.2h0l2.2-1.3ZM45,38.2a12.2,12.2,0,0,1,1.9,1.3,7.5,7.5,0,0,0-2.2-1.1Zm-4,3a3.5,3.5,0,0,0,.6,1.7L40,42.2ZM20.3,44.7l.3.2A7.1,7.1,0,0,0,18.5,46l1.8-1.3Zm24,0,.3.2A7.1,7.1,0,0,0,42.5,46l1.8-1.3ZM29.8,51.3l.3.2h-.3v-.2Zm.5.4.3.2c-.3,0-.5.2-.8.3V52Zm.4.2a27.6,27.6,0,0,1,4.9,4v1.6l-3,1.8c1.2-1.3.5-2.8,1.2-4.9-1.6,1.9-2.6,3-1.9,5.2a15.4,15.4,0,0,1,.9-2.4,6,6,0,0,0-.6,2.3l-2.4,2V58.7a.5.5,0,0,0,.5-.5.6.6,0,0,0-.6-.5h.1V53.1a2.3,2.3,0,0,0,.9-1.2Zm-6.9,2c-1.3,1.6-2.1,2.5-1.5,4.3a5.8,5.8,0,0,1,.7-1.9,8.3,8.3,0,0,0-.5,1.8h-.2l-.3.2h.2l.3-.2h.1l2.5-1.5-2.2,1.1c.9-1.1.4-2.2.9-4Zm-4.8,2c-.1.1-.2.3-.4.4l.2.2C18.9,56.3,18.9,56.1,19,55.9Zm16.6,1.9v.3h-.3l.3-.2Zm-.6.4a1.3,1.3,0,0,1,.6.4h0l-.9-.3Z" transform="translate(-4.8 -0.5)"/><path id="path7141" class="cls-3" d="M36.2,2.2v8.5h3V4Zm-10,2.6V17.2h3V4.8ZM14.4,10.2l-3,1.8v6.7h3V10.2Zm35.8.3v6.7h3V12.3Zm-14,1.3V24.2h3V11.8Zm-10,6.5V30.7h3V18.3Zm24,0V30.7h3V18.3ZM11.4,19.8V32.2h3V19.8Zm24.8,5.5V37.7h3V25.3Zm-10,6.5V44.2h3V31.8Zm24,0V44.2h3V31.8ZM11.4,33.3V45.7h3V33.3Zm24.8,5.5V51.2h3V38.8Zm-10,6.5V57.7h3V45.3Zm24,0v8.2l3-1.8V45.3ZM11.4,46.8V52l3,1.8v-7Zm24.8,5.4v9.6l3-1.8V52.2Zm-10,6.6v2l3,1.8V58.8Z" transform="translate(-4.8 -0.5)"/><path id="path7143" class="cls-4" d="M37,2.7v8h1.4V3.5ZM27,4.8V17.2h1.4V4.8ZM13.6,10.7l-1.4.8v7.2h1.4ZM51,11v6.2h1.4V11.8Zm-14,.8V24.2h1.4V11.8ZM27,18.3V30.7h1.4V18.3Zm24,0V30.7h1.4V18.3ZM12.2,19.8V32.2h1.4V19.8ZM37,25.3V37.7h1.4V25.3ZM27,31.8V44.2h1.4V31.8Zm24,0V44.2h1.4V31.8ZM12.2,33.3V45.7h1.4V33.3ZM37,38.8V51.2h1.4V38.8ZM27,45.3V57.7h1.4V45.3Zm24,0V53l1.4-.8V45.3ZM12.2,46.8v5.7l1.4.8V46.8ZM37,52.2v9.1l1.4-.8V52.2ZM27,58.8v2.5l1.4.8V58.8Z" transform="translate(-4.8 -0.5)"/></g></g></g></g><g id="Panda"><circle class="cls-5" cx="15.2" cy="29.2" r="4.1"/><circle class="cls-5" cx="39.2" cy="29.1" r="4.1"/><path class="cls-5" d="M49.7,53.8a21.4,21.4,0,0,0-9-7.2h-.1a17.4,17.4,0,0,1-9,2.2c-3.3,0-8.3-2.1-8.3-2.1h0a17.4,17.4,0,0,0-9.4,6.8L20,57.2l.7-.3c0,.1.1.7.1.7l9.4,5.5a4.9,4.9,0,0,0,3.6.1L43,57.7a5.4,5.4,0,0,0,.1-.8l.5.2.2.2Z" transform="translate(-4.8 -0.5)"/><path class="cls-6" d="M40.6,46.6a11.1,11.1,0,0,0,5.8-9.8c0-6.4-6.5-11.6-14.5-11.6S17.5,30.4,17.5,36.8a11.4,11.4,0,0,0,5.9,9.9,15.1,15.1,0,0,0,8.2,2.1A17.1,17.1,0,0,0,40.6,46.6Z" transform="translate(-4.8 -0.5)"/><path class="cls-6" d="M33.7,63.3c6.6-3.9,0,0,6.6-4,0,0-1.6-4.2-1.8-4.5s-2.1-4.2-6-4.4a7.8,7.8,0,0,0-7,4.2c-.5.9-2.1,4.6-1.9,4.7,6.6,3.9,1.8,1.2,6.5,3.9A5.5,5.5,0,0,0,33.7,63.3Z" transform="translate(-4.8 -0.5)"/><ellipse class="cls-5" cx="27.2" cy="40.4" rx="3.2" ry="2.2"/><path class="cls-5" d="M41,35.1c-2.4-2.9-3.3-2.6-4.8-1.4a2.3,2.3,0,0,0-.8,3.1,2.3,2.3,0,0,1,3.4.1,2.4,2.4,0,0,1-.1,3.4,1.5,1.5,0,0,1-.6.4c1.4,1.8,1.8,2.3,3,1.4s2.2-4-.1-7Z" transform="translate(-4.8 -0.5)"/><path class="cls-5" d="M22.8,35.2c-2.3,3-1.6,5.8-.1,7s1.6.4,3-1.4l-.6-.4A2.4,2.4,0,0,1,25,37a2.3,2.3,0,0,1,3.4-.1,2.3,2.3,0,0,0-.8-3.1c-1.5-1.2-2.4-1.5-4.8,1.4Z" transform="translate(-4.8 -0.5)"/></g></svg>