<svg id="Calque_1" data-name="Calque 1" xmlns="http://www.w3.org/2000/svg" viewBox="0 0 384.8 283.2"><defs><style>.cls-1{fill:#414242;}.cls-2{fill:#fff;}</style></defs><title>vie</title><circle class="cls-1" cx="48.8" cy="53.6" r="48.8"/><circle class="cls-1" cx="336" cy="52.8" r="48.8"/><path class="cls-2" d="M304.3,324.1c44.8-26.5,68.4-70.2,68.4-117.5,0-76.9-77.3-139.2-172.8-139.2S27.1,129.7,27.1,206.6c0,48.1,25.4,92.4,70,118.8,26.7,15.8,60.2,25.2,99.2,25.2C240.1,350.6,276.3,340.7,304.3,324.1Z" transform="translate(-7.9 -67.4)"/><ellipse class="cls-1" cx="192" cy="188.4" rx="38.4" ry="26.4"/><path class="cls-1" d="M308.2,186.3c-28.3-35.5-38.9-32.1-57-17.6-12.3,9.7-16.6,20.2-9.3,37a28.8,28.8,0,1,1,39.5,41.9,26.5,26.5,0,0,1-7.1,4.9c16.2,21.9,20.7,28.5,35.4,16.8,18.2-14.5,26.8-47.4-1.5-83Z" transform="translate(-7.9 -67.4)"/><path class="cls-1" d="M91,187.5c-28.3,35.6-19.7,68.5-1.5,83,14.8,11.7,19.2,5.1,35.4-16.8a26,26,0,0,1-7-4.9,28.8,28.8,0,1,1,39.4-41.9c7.3-16.8,3.1-27.3-9.2-37C129.9,155.4,119.3,152,91,187.5Z" transform="translate(-7.9 -67.4)"/></svg>