<svg id="homme-buisnessman" xmlns="http://www.w3.org/2000/svg" viewBox="0 0 500 630"><defs><style>.cls-1{fill:#ffead4;}.cls-2{fill:#303c42;}.cls-10,.cls-3{fill:#fff;}.cls-4{fill:#ff5c5c;}.cls-5{fill:#f88;}.cls-6{fill:#f93232;}.cls-7{fill:#fbd872;}.cls-8{fill:#c1af81;}.cls-9{fill:#84642d;}.cls-10{stroke:#020202;stroke-miterlimit:10;stroke-width:3px;}</style></defs><title>homme-businessman</title><g id="Corps"><g id="Corps-2" data-name="Corps"><path class="cls-1" d="M490.8,468,388.4,386.2h-1.2c-23.3,13.8-53.5,22.1-90,22.1-32.5,0-60.4-7.9-82.6-21h-.5l-107.9,78c-10,11.3-3.1,65.5,32.9,47.5l49.1-24.5,13,116.4c.6,31.7,48.5,43.5,68-5.1,5.9-14.7,19.3-15.8,31.6-15.3,14.2.5,26.7,4.9,33.9,21,20,44.3,65,26.5,64.5.3l13-117.3s32.9,21.2,54.7,26.5C502.8,523.6,505.1,476.6,490.8,468Z"/><path class="cls-1" d="M389.2,386.2c37.3-22.1,57-58.5,57-97.9,0-64.1-64.4-116-144-116s-144,51.9-144,116c0,40.1,21.2,77,58.4,99,22.2,13.1,50.1,21,82.6,21C335.7,408.3,365.9,400,389.2,386.2Z"/></g></g><g id="Vêtements"><path d="M192.2,537.6s.3,8.9,1.7,24c3,34,5,39.4,6.3,43.1,17.7,52.2,57,20.9,68-5.1,7.2-14.1,19.3-15.8,31.6-15.3,14.2.5,26.7,4.9,33.9,21,20,44.3,65,26.5,64.5.3,3.1-7.8,5.4-28.4,6.9-47,1-11.9,1.4-20,1.4-20Z"/><path class="cls-2" d="M474.3,455,388,386.2h-1.1c-23.3,13.8-53.5,22.1-90,22.1-32.5,0-82.7-21-82.7-21h-.5q-17.5,11.8-35.5,24.9c-17.7,12.8-34.4,25.6-50.2,38.2l33.2,53.9,26.7-16,1.1,50.8,221.6,1.3,1.3-52.1,25.2,16.6Z"/><rect class="cls-3" x="246.6" y="401.4" width="98.7" height="138"/><path class="cls-4" d="M337.1,404.5,321,437.9l19.5,89L298,566.2l-41.2-41.1,18.7-86.9-18.1-36.8A169.8,169.8,0,0,0,337.1,404.5Z"/></g><g id="Casque"><path class="cls-1" d="M389.2,386.2c37.3-22.1,57-58.5,57-97.9,0-64.1-64.4-116-144-116s-144,51.9-144,116c0,40.1,21.2,77,58.4,99,22.2,13.1,50.1,21,82.6,21C335.7,408.3,365.9,400,389.2,386.2Z"/><rect class="cls-3" x="197.8" y="157.8" width="197" height="80.5"/><path class="cls-2" d="M403,150.3V112.4c0-18.8,9-80.8,11.7-86.7.1-.1-.1-.2-.1-.3a6.2,6.2,0,0,0,1.4-3.6C416,5.7,352.6,2.4,299.5,2.4S183,5.7,183,21.8a6.7,6.7,0,0,0,.8,3c.1.1,0,.2.1.3,3.1,6.5,12,68.5,12,87.3v37.9c-35.6,7.6-51.7,26-51.7,59.2,0,42.1,71.1,77.6,155.3,77.6s155.3-35.5,155.3-77.6C454.8,176.3,438.6,157.9,403,150.3ZM247.7,183.6v35.1c-18.5-3.1-29.6-7.3-35.7-10.6a6.3,6.3,0,0,1-3.1-5.6V173.8c7.4,2.4,19.7,5.3,39.1,7.3A21.3,21.3,0,0,0,247.7,183.6Zm90.6,38.8a13,13,0,0,1-12.9,13H273.6a13,13,0,0,1-13-13V183.6a13.1,13.1,0,0,1,13-13h51.8a13,13,0,0,1,12.9,13Zm51.8-19.9a6.2,6.2,0,0,1-3.2,5.6c-6.2,3.3-17.4,7.6-35.6,10.7V183.6a20.6,20.6,0,0,0-.3-2.6c19.1-2.2,31.5-5.1,39.1-7.5Z"/><path class="cls-2" d="M318.9,183.6H280.1a6.5,6.5,0,0,0-6.5,6.5v25.8a6.5,6.5,0,0,0,6.5,6.5h38.8a6.5,6.5,0,0,0,6.5-6.5V190.1A6.5,6.5,0,0,0,318.9,183.6Z"/><rect class="cls-2" x="253.8" y="163.3" width="90" height="90"/></g><g id="Visage"><circle class="cls-5" cx="296.2" cy="374.3" r="19"/><path class="cls-6" d="M296.6,393.5c-9.1-1-15.9-5.6-16.6-9.9s9.2-8.7,16.7-8.7,17.4,4,16.2,8.5S304.6,392.3,296.6,393.5Z"/></g><g id="Armes"><rect id="Top" class="cls-7" x="292.6" y="101.9" width="18.2" height="27.3"/><rect id="Bottom" class="cls-7" x="292.6" y="220.2" width="18.2" height="27.3"/><path id="S" class="cls-7" d="M270.8,204.4a61.7,61.7,0,0,0,26.3,6.3c11,0,16.9-4.5,16.9-11.8s-5-10.5-17.8-14.6c-17.7-6.3-29.1-15.9-29.1-31.3,0-18.2,15-31.9,40.1-31.9,12.2,0,20.9,2.3,26.8,5.5l-5.5,19.1c-4.1-2.3-11.8-5-21.8-5s-15.5,5-15.5,10c0,6.8,5.9,9.5,19.6,15,18.6,6.8,27.3,16.8,27.3,31.8,0,17.8-13.7,32.8-42.8,32.8-12.3,0-24.1-3.2-30-6.4Z"/><rect class="cls-8" x="114" y="487.4" width="19.7" height="13.67"/><path class="cls-8" d="M124.9,489.1c1.7,2.2,3.9,3.3,6.1,4.4a43.2,43.2,0,0,0-2.2,7.1H126c-1.6,0-3.8-.5-5.5-.5s-1.6-2.8-2.2-3.9a2.2,2.2,0,0,0-.5-1.1,23.6,23.6,0,0,0,7.1-6m0-12.7h0c-2.7,0-5.5.6-8.2,5s-5.5,3.8-10.5,3.8-5.5,3.3-3.3,6.6c1.1,1.7,8.3,13.8,9.9,16.5s8.3,3.9,13.2,3.9h1.1c5,0,12.7-2.2,12.1-6.1-.5-7.1,6.6-16.5,7.7-17.6s1.1-7.1-3.3-7.1a7.6,7.6,0,0,0-3.3.5,9.5,9.5,0,0,1-4.4,1.1,2.9,2.9,0,0,1-2.7-1.6c-3.3-4.4-6.1-5-8.3-5Z"/><path class="cls-8" d="M112.8,508.3c1.7,2.8,9.4,3.9,14.3,3.9s12.7-2.2,12.1-6.1c-.5-7.1,6.6-16.5,7.7-17.6-2.2,1.1-3.8,2.8-6,2.2-1.1,1.1-3.9,7.7-9.4,7.7-3.8,0-4.4-5.5-7.1-5.5s-3.3,3.9-5.5,4.4c-5,1.1-8.8-3.8-11.6-7.1-1.1,0-3.3-1.7-4.4,2.2C104,493.5,111.2,505.6,112.8,508.3Z"/><path class="cls-8" d="M138.1,513.8a30.7,30.7,0,0,1-11,2.8H126a30.5,30.5,0,0,1-10.4-1.7c-23.7,7.2-41.3,31.4-41.3,48.4,0,20.4,24.8,23.1,55,23.1s55-2.7,55-23.1C184.3,545.2,164.5,519.3,138.1,513.8Zm-11,31.4a34.4,34.4,0,0,0,3.3,2.7,20.5,20.5,0,0,1,7.7,4.4,10.8,10.8,0,0,1,2.8,7.7,10.4,10.4,0,0,1-2.8,7.2,12.9,12.9,0,0,1-6.6,3.3v4.9h-3.8v-4.9a15.5,15.5,0,0,1-7.2-3.3c-1.6-1.7-2.7-5-2.7-8.3h7.1a12,12,0,0,0,1.1,5,3.9,3.9,0,0,0,3.3,1.6,4.2,4.2,0,0,0,2.8-1.1,8.6,8.6,0,0,0,1.1-3.3,5.1,5.1,0,0,0-1.1-3.3c-.6-1.1-1.7-1.6-3.3-2.7a20.5,20.5,0,0,1-7.7-4.4,10.4,10.4,0,0,1-2.8-7.2,10.1,10.1,0,0,1,2.8-7.1,11.5,11.5,0,0,1,6.6-3.3v-5.5h3.8v5.5a9.7,9.7,0,0,1,6.6,3.8c1.7,2.2,2.2,4.4,2.2,7.7h-7.1a11.4,11.4,0,0,0-1.1-4.4,3.1,3.1,0,0,0-2.8-1.6,3.7,3.7,0,0,0-2.7,1.1,6.5,6.5,0,0,0-.6,3.3C126.6,543.5,126.6,544.6,127.1,545.2Z"/></g><g id="Yeux"><line class="cls-9" x1="187.2" y1="250.3" x2="277.2" y2="294.3"/><polygon class="cls-9" points="192.7 239 277.2 294.3 181.8 261.5 192.7 239"/><line class="cls-9" x1="406.2" y1="249.8" x2="316.2" y2="293.8"/><polygon class="cls-9" points="411.7 261 316.2 293.8 400.8 238.5 411.7 261"/><path class="cls-10" d="M274.9,321s-8.9,32-39.1,30.8c-25.5,1.5-41.6-20.4-40.9-40.8.2-4.9,5.2-20.6,5.2-20.6Z"/><path d="M255.9,320.9c-.6,8.7-7.9,20.3-20.4,20.3a20.3,20.3,0,0,1-20.3-20.3c0-7.8,3.8-17.5,11.2-18.2s19.4,6.5,27.7,9.4C255,312.4,256.2,316.3,255.9,320.9Z"/><path class="cls-10" d="M316.9,321s8.9,32,39.1,30.8c25.5,1.5,41.6-20.4,40.8-40.8-.1-4.9-5.1-20.6-5.1-20.6Z"/><path d="M335.9,320.9c.6,8.7,7.9,20.3,20.4,20.3a20.3,20.3,0,0,0,20.3-20.3c0-7.8-3.8-17.5-11.2-18.2s-19.4,6.5-27.8,9.4C336.8,312.4,335.6,316.3,335.9,320.9Z"/></g></svg>