<svg xmlns="http://www.w3.org/2000/svg" viewBox="0 0 500 630"><defs><style>.cls-1{fill:#ffead4;}.cls-2{fill:#3b724a;}.cls-3{fill:#fbd872;}.cls-4{fill:#353535;}.cls-13,.cls-5{fill:#fff;}.cls-6{fill:#ffde17;}.cls-7{fill:#ffc909;}.cls-8{fill:#fffcdd;}.cls-9{fill:#ffb600;}.cls-10{fill:#f88;}.cls-11{fill:#f93232;}.cls-12{fill:#84642d;}.cls-13{stroke:#020202;stroke-miterlimit:10;stroke-width:3px;}</style></defs><title>homme</title><g id="homme-tronçonneuse"><g id="Corps-2" data-name="Corps"><g id="Corps-3" data-name="Corps"><path class="cls-1" d="M491.8,468,389.4,386.2h-1.2c-23.3,13.8-53.5,22.1-90,22.1-32.5,0-60.4-7.9-82.6-21h-.5l-107.9,78c-10,11.3-3.1,65.5,32.9,47.5l49.1-24.5,13,116.4c.6,31.7,48.5,43.5,68-5.1,5.9-14.7,19.3-15.8,31.6-15.3,14.2.5,26.7,4.9,33.9,21,20,44.3,65,26.5,64.5.3l13-117.3s32.9,21.2,54.7,26.5C503.8,523.6,506.1,476.6,491.8,468Z"/><path class="cls-1" d="M388.2,386.2c37.3-22.1,57-58.5,57-97.9,0-64.1-64.4-116-144-116s-144,51.9-144,116c0,40.1,21.2,77,58.4,99,22.2,13.1,50.1,21,82.6,21C334.7,408.3,364.9,400,388.2,386.2Z"/></g></g><g id="Vêtements-3" data-name="Vêtements"><path class="cls-2" d="M191.2,537.6s.3,8.9,1.7,24c3,34,5,39.4,6.3,43.1,17.7,52.2,57,20.9,68-5.1,7.2-14.1,19.3-15.8,31.6-15.3,14.2.5,26.7,4.9,33.9,21,20,44.3,65,26.5,64.5.3,3.1-7.8,5.4-28.4,6.9-47,1-11.9,1.4-20,1.4-20Z"/><path class="cls-3" d="M473.3,455,387,386.2h-1.1c-23.3,13.8-53.5,22.1-90,22.1-32.5,0-82.7-21-82.7-21h-.5c-3.9.6-68.1,49.3-68.1,49.3a62.3,62.3,0,0,0-4.6,34.7c1.9,11.4,20.2,33,20.2,33l26.7-16h0l.8,49,222,.5,1.2-49.5,25.2,16.6Z"/></g><g id="Armes-2" data-name="Armes"><path class="cls-4" d="M51.2,233.3c-10.5-5.4-23.4-4-35.7,3.7C.9,246.3-4.2,263.3,3.2,278.5l1.5,3.1-.8,4.6c-.4,2.5-1,6.3-1.4,8.3-1.2,6.8-.5,7.9,7.2,11.7s7.4,3.6,7.3,4.6-.6,3.7-1.2,7.2c-1.5,9.2-1.4,9.4,7.7,14a49.8,49.8,0,0,1,6.3,3.3,57.9,57.9,0,0,1-.9,7.1c-1.8,10.5-2,10.1,8,15.2,6.9,3.5,6.2,2.2,5,9.3-1.9,11.6-2.3,10.9,9.5,16.8l6.9,3.4,1.9,3.5,1.9,3.6-1.2,2.2c-4.9,9.3-4.7,10.1,9.9,38.6,13.3,25.9,14.4,27.7,21.2,32.4l2.9,2.5a9.5,9.5,0,0,0,2.7,1.7c1.6.5,1.7.6,7.6,12,7.4,14.3,8.6,16,14.3,19.1,9.3,5.2,12.8,4.6,33.7-6.1S174.4,485.5,177,476c2-7.5,1.3-10.4-6.3-25.5-5.4-10.7-5.6-11.2-5-12.2s.9-1,1.3-.9l8.4,1.9c4.3.9,7.8,1.8,7.9,1.9a15.4,15.4,0,0,1-.6,3.2c-1.4,5.7.5,8.9,4.9,8.4s3.6-.6,6.8-14.2,3.3-15.4-.7-16.7-6.3,1.1-7.5,7.7a3.6,3.6,0,0,1-.4,1.6l-9.3-2-9.2-2.1s-.1-.9-.2-2c-.5-5-1.9-8.5-11-26.5-8.1-16-8.9-17.8-7.8-17.2,3.4,1.8,4.3,3.3,13.3,20.8s9.3,18,11.6,18.8a6,6,0,0,0,7.9-6.8c-.3-2.6-17.4-35.1-19.9-37.9a27.9,27.9,0,0,0-20.3-9.2c-1.7,0-1.9-.1-3.4-1.3s-5.4-3.1-9.8-3.8l-3.9-.5-1.3-2.6c-1.5-2.9-1.5-2.8-.1-10.7,1.8-10.9,1.8-10.2.8-12.1s-1.7-2.5-8.9-6.2a57.8,57.8,0,0,1-5.4-2.8c-.1-.1.4-3.3,1-7.1,1.7-10.2,1.7-10.3-7.5-14.9l-6.5-3.3c0-.1.4-3.3,1-7.1,1.8-10.5,1.8-10.3-7.6-15-7.3-3.6-6.7-2.4-5.3-9.9,1.9-11,2.2-10.5-9.2-16.2l-8.3-4.1L65,246.8a32.1,32.1,0,0,0-13.8-13.5"/><path class="cls-1" d="M125.2,479.1l-3.2-6.2,15.1-7.6,15-7.7,3.2,6.4c4.2,8.4,5.3,6.9-11.3,15.4s-14.4,8.2-18.8-.3"/><path class="cls-5" d="M36.5,242.3a19.4,19.4,0,0,1,15.9,7.6c.6.8,13.9,26.4,29.5,56.9l28.4,55.4h-2a41.2,41.2,0,0,0-11.1,2.6L93.9,366,69.3,317.7c-13.5-26.5-25.1-48.9-25.8-49.8-4-4.9-11.9-1.5-10.8,4.6.1.7,11.5,23.3,25.2,50.3L83,371.9l-1.8,1.2a65.3,65.3,0,0,0-9.5,8.2l-1.4,1.6L41.9,327.4c-32.9-64.1-31.4-60.5-28.6-69s13.2-15.7,23.2-16.1"/><path class="cls-3" d="M137.1,465.3l15-7.7,3.2,6.4c2.5,3.9,3.3,7,2.6,6.8-.4,2.3-7.6,5.4-13.9,8.6"/></g><g id="Casque-3" data-name="Casque"><g id="Labor_Day" data-name="Labor Day"><path class="cls-6" d="M397.2,137.8v-7.4l-28-22.4-7.8,4.3v.2a140.6,140.6,0,0,0-35.7-12.1l-2.1-13.7h-51l-2.3,13.7a138.2,138.2,0,0,0-35.2,12h0l-7.8-4.3-28,22.4v7.1a142.5,142.5,0,0,0-43.7,102.6h285A142.4,142.4,0,0,0,397.2,137.8Z"/><rect class="cls-7" x="139.8" y="233.8" width="316.7" height="40.7"/><path class="cls-8" d="M261.8,102.4l-4.5,111.3L271,100.3C267.9,100.9,264.8,101.6,261.8,102.4Z"/><path class="cls-7" d="M338.9,213.7l-4.7-111.4c-3-.8-6-1.4-9-2Z"/><path class="cls-9" d="M155.8,234H440.4c-.2-3.6-.5-7.2-.9-10.7L155.8,233.9Z"/><polygon class="cls-7" points="232.9 175.2 241.7 109.3 235.1 112.3 227.3 108 232.9 175.2"/><polygon class="cls-8" points="199.3 179.8 199.3 137.5 195.4 141.4 199.3 179.8"/><polygon class="cls-7" points="363.6 175.2 369.2 108 361.4 112.3 354.8 109.3 363.6 175.2"/><polygon class="cls-8" points="397.2 179.8 401.1 141.4 397.2 137.5 397.2 179.8"/></g></g><g id="Visage-3" data-name="Visage"><circle class="cls-10" cx="295.2" cy="364.3" r="19"/><path class="cls-11" d="M295.6,383.5c-9.1-1-15.9-5.6-16.6-9.9s9.2-8.7,16.7-8.7,17.4,4,16.2,8.5S303.6,382.3,295.6,383.5Z"/></g><g id="Yeux-3" data-name="Yeux"><line class="cls-12" x1="186.2" y1="230.3" x2="276.2" y2="274.3"/><polygon class="cls-12" points="191.7 219 276.2 274.3 180.8 241.5 191.7 219"/><line class="cls-12" x1="405.2" y1="229.8" x2="315.2" y2="273.8"/><polygon class="cls-12" points="410.7 241 315.2 273.8 399.8 218.5 410.7 241"/><path class="cls-13" d="M273.9,301s-8.9,32-39.1,30.8c-25.5,1.5-41.6-20.4-40.9-40.8.2-4.9,5.2-20.6,5.2-20.6Z"/><path d="M254.9,300.9c-.6,8.7-7.9,20.3-20.4,20.3a20.3,20.3,0,0,1-20.3-20.3c0-7.8,3.8-17.5,11.2-18.2s19.4,6.5,27.7,9.4C254,292.4,255.2,296.3,254.9,300.9Z"/><path class="cls-13" d="M315.9,301s8.9,32,39.1,30.8c25.5,1.5,41.6-20.4,40.8-40.8-.1-4.9-5.1-20.6-5.1-20.6Z"/><path d="M334.9,300.9c.6,8.7,7.9,20.3,20.4,20.3a20.3,20.3,0,0,0,20.3-20.3c0-7.8-3.8-17.5-11.2-18.2s-19.4,6.5-27.8,9.4C335.8,292.4,334.6,296.3,334.9,300.9Z"/></g></g></svg>