<svg xmlns="http://www.w3.org/2000/svg" viewBox="0 0 500 630"><defs><style>.cls-1,.cls-10{fill:#fff;}.cls-2{fill:#ffead4;}.cls-3{fill:#ff7139;}.cls-4{fill:#ff5e0d;}.cls-5{fill:#ffe1e1;}.cls-6{fill:red;}.cls-7{fill:#f88;}.cls-8{fill:#f93232;}.cls-9{fill:#84642d;}.cls-10{stroke:#020202;}.cls-10,.cls-13{stroke-miterlimit:10;}.cls-11{fill:#f9c648;}.cls-12,.cls-14{fill:#303c42;}.cls-13{fill:none;stroke:#000;stroke-width:2px;}.cls-14{opacity:0.75;}.cls-15{fill:#f9dc93;}.cls-16{fill:#e5b94c;}.cls-17{fill:#fbd872;}</style></defs><title>homme-bulldozer</title><g id="condcteur"><rect class="cls-1" x="180.6" y="104.4" width="130.5" height="123.61"/><g id="Corps-3" data-name="Corps"><path class="cls-2" d="M284.9,213.5l-19.8-15.9h-.3c-4.5,2.7-10.3,4.3-17.4,4.3a31.6,31.6,0,0,1-16-4h-.1l-20.8,15c-2,2.2-.6,12.7,6.3,9.2l9.5-4.7,2.5,22.5c.2,6.2,9.4,8.4,13.2-1,1.2-2.8,3.8-3,6.1-2.9s5.2.9,6.6,4c3.9,8.6,12.6,5.2,12.5.1l2.5-22.7s6.3,4.1,10.6,5.1C287.2,224.2,287.7,215.1,284.9,213.5Z"/><path class="cls-2" d="M264.8,197.6a21.5,21.5,0,0,0,11.1-18.9c0-12.4-12.5-22.5-27.9-22.5s-27.9,10.1-27.9,22.5a22.3,22.3,0,0,0,11.3,19.2,31.6,31.6,0,0,0,16,4C254.5,201.9,260.3,200.3,264.8,197.6Z"/></g><g id="Vêtements-4" data-name="Vêtements"><path class="cls-3" d="M281.9,211l-16.7-13.4H265c-4.5,2.7-10.4,4.3-17.4,4.3s-16-4-16-4h-.1c-.8.1-13.2,9.5-13.2,9.5s2.9,12.9,3,13.1,5.2-3.1,5.2-3.1v9.5h43l.2-9.6,4.9,3.2Z"/></g><g id="Casque-4" data-name="Casque"><path class="cls-3" d="M267.2,149.6v-1.5l-5.5-4.3-1.5.8h0a26.9,26.9,0,0,0-6.9-2.4l-.4-2.6h-9.8l-.5,2.6a34.1,34.1,0,0,0-6.8,2.3h0l-1.5-.8-5.4,4.3v1.4a27.7,27.7,0,0,0-8.5,19.9h55.2A27.8,27.8,0,0,0,267.2,149.6Z"/><rect class="cls-4" x="217.3" y="168.1" width="61.3" height="7.88"/><path class="cls-5" d="M241,142.7l-.9,21.6,2.6-22Z"/><path class="cls-4" d="M255.9,164.3l-.9-21.6-1.8-.4Z"/><path class="cls-6" d="M220.4,168.2h55.1c0-.7-.1-1.4-.1-2.1l-55,2.1Z"/><polygon class="cls-4" points="235.4 156.8 237.1 144 235.8 144.6 234.3 143.8 235.4 156.8"/><polygon class="cls-5" points="228.9 157.7 228.9 149.5 228.1 150.3 228.9 157.7"/><polygon class="cls-4" points="260.7 156.8 261.7 143.8 260.2 144.6 259 144 260.7 156.8"/><polygon class="cls-5" points="267.2 157.7 267.9 150.3 267.2 149.5 267.2 157.7"/></g><g id="Visage-4" data-name="Visage"><circle class="cls-7" cx="247.4" cy="193.4" r="3.7"/><path class="cls-8" d="M247.5,197.1c-1.7-.2-3.1-1.1-3.2-1.9s1.8-1.7,3.2-1.7,3.4.8,3.2,1.7A4,4,0,0,1,247.5,197.1Z"/></g><g id="Yeux-4" data-name="Yeux"><line class="cls-9" x1="226.3" y1="167.5" x2="243.8" y2="176"/><polygon class="cls-9" points="227.9 164.3 243.8 176 224.8 170.6 227.9 164.3"/><line class="cls-9" x1="268.7" y1="167.4" x2="251.3" y2="175.9"/><polygon class="cls-9" points="270.3 170.5 251.3 175.9 267.2 164.2 270.3 170.5"/><path class="cls-10" d="M243.3,181.1s-1.7,6.3-7.6,6a7.6,7.6,0,0,1-7.9-7.9c.1-.9,1-4,1-4Z"/><path d="M239.6,181.1c-.1,1.7-1.5,4-3.9,4a4,4,0,0,1-4-4c0-1.5.8-3.4,2.2-3.5s3.8,1.3,5.4,1.8S239.7,180.2,239.6,181.1Z"/><path class="cls-10" d="M251.4,181.1s1.8,6.3,7.6,6a7.5,7.5,0,0,0,7.9-7.9,25.3,25.3,0,0,0-1-4Z"/><path d="M255.1,181.1a4.2,4.2,0,0,0,4,4,4,4,0,0,0,3.9-4c0-1.5-.7-3.4-2.2-3.5s-3.7,1.3-5.4,1.8A3.8,3.8,0,0,0,255.1,181.1Z"/><rect class="cls-11" x="166.8" y="87.7" width="156.1" height="16.82"/><rect class="cls-12" x="135.3" y="107.5" width="27.6" height="39.24" rx="12" ry="12"/><rect class="cls-12" x="333.6" y="107.5" width="27.6" height="39.24" rx="12" ry="12"/><path class="cls-13" d="M167.2,98.5c-17.4-2.3-27.7,2.4-20.7,11.6"/><path class="cls-13" d="M324.5,98.5c17.5-2.3,27.7,2.4,20.7,11.6"/></g><rect class="cls-14" x="180.6" y="104.4" width="130.5" height="123.61"/></g><g id="machine-bulldozer"><path class="cls-15" d="M352.2,351.6,150.4,355l-39.7-99.1h276Z"/><rect class="cls-12" x="95.2" y="271.4" width="70.7" height="92.28" rx="12" ry="12"/><rect class="cls-12" x="328" y="271.4" width="70.7" height="92.28" rx="12" ry="12"/><rect class="cls-11" x="198.7" y="257.6" width="94" height="94"/><path class="cls-16" d="M493.6,556.8H6.4l6-211.3,470.9-.8Z"/><path class="cls-15" d="M498.4,557.3,2.9,556.8,9.8,454.2H488.4C491.8,488.6,495.1,522.9,498.4,557.3Z"/><path class="cls-11" d="M12,346c9.3,24.5,23.1,71.3,15.7,129.5A263.5,263.5,0,0,1,3.3,557.7Z"/><path class="cls-11" d="M483.7,344.7c-9,23.8-23.3,72.1-13.5,131.6A251.8,251.8,0,0,0,497.6,556Q490.7,450.3,483.7,344.7Z"/><path class="cls-17" d="M111,256.7l276-.6-26.2-41.6-223.3.8Q124.2,236,111,256.7Z"/></g></svg>