<svg xmlns="http://www.w3.org/2000/svg" viewBox="0 0 500 630"><defs><style>.cls-1{fill:#4f575b;}.cls-2{fill:#f9c648;}.cls-3,.cls-6{fill:#fff;}.cls-4{fill:none;}.cls-4,.cls-5{stroke:#000;stroke-miterlimit:10;stroke-width:2px;}.cls-6{opacity:0.25;}.cls-7{fill:#3d3d3d;}.cls-8{fill:#ff5c5c;}.cls-9{fill:#2b2b2b;}</style></defs><title>homme-bombardier</title><g id="machine-bombardier"><circle class="cls-1" cx="250.3" cy="394.2" r="58.7"/><circle class="cls-2" cx="373.9" cy="433.1" r="20.5"/><circle class="cls-1" cx="303.8" cy="436.3" r="7.3"/><circle class="cls-1" cx="335.7" cy="431.8" r="6.6"/><path class="cls-1" d="M307.9,387.6c72.7-9.7,167.1-27.7,190.4-18.7,15.4,18.3-115.2,37.8-200.1,57C304,416.5,306.6,403,307.9,387.6Z"/><circle class="cls-2" cx="125.1" cy="433.1" r="20.5"/><circle class="cls-1" cx="195.2" cy="436.3" r="7.3"/><circle class="cls-1" cx="163.3" cy="431.8" r="6.6"/><path class="cls-1" d="M192.1,387.6C119.5,377.9,25,359.9,1.8,368.9c-15.5,18.3,115.2,37.8,200,57C196,416.5,193.4,403,192.1,387.6Z"/><polygon class="cls-3" points="296.5 371 303.4 390.8 269 396.3 266.9 373.4 296.5 371"/><polygon class="cls-3" points="200.9 370.6 194 390.4 228.4 396 230.5 373.1 200.9 370.6"/><path class="cls-3" d="M233.6,373.4h29.2c.8,7.7,1.6,15.4,2.5,23.1H231.2Z"/><path class="cls-1" d="M239.1,336.2h16.7l-1.4-12.1c.2,1.4,53.7-11.5,56.6-15.3s-39.6.2-55.9,4.2c-3.3.8,1.3-7.4-1.7-10.5s-9.2-2.8-11.5,0,3.2,11.1,0,10.1c0,0-60-7.8-56.6-2.8l54.9,13.9Z"/><circle class="cls-4" cx="374.1" cy="432.9" r="16.1"/><circle class="cls-5" cx="374" cy="433.8" r="2.9"/><path d="M371.7,436.6a30.6,30.6,0,0,1,4.9-.2l6,9.8a18.9,18.9,0,0,1-6.9,2.7,15.7,15.7,0,0,1-9.3-2.3Z"/><path d="M372.7,430.6l-2.5,3.2-12.5-1.7a16.6,16.6,0,0,1,2.2-7,15.2,15.2,0,0,1,7.6-5.8C369.3,423.1,371,426.8,372.7,430.6Z"/><path d="M375.3,430.1l2.6,3.2,12.5-1.9a18.5,18.5,0,0,0-2.4-7,14.7,14.7,0,0,0-7.7-5.6C378.6,422.5,377,426.3,375.3,430.1Z"/><circle class="cls-4" cx="125.6" cy="433.7" r="16.1"/><circle class="cls-5" cx="125.5" cy="434.6" r="2.9"/><path d="M123.2,437.4c1-.4,4.8-.2,4.8-.2l6,9.8a18.1,18.1,0,0,1-6.8,2.7,15.7,15.7,0,0,1-9.3-2.3Z"/><path d="M124.2,431.4l-2.6,3.1-12.4-1.6a16.6,16.6,0,0,1,2.2-7,15.2,15.2,0,0,1,7.6-5.8C120.7,423.8,122.4,427.6,124.2,431.4Z"/><path d="M126.8,430.9l2.6,3.1,12.4-1.8a17.5,17.5,0,0,0-2.3-7,15.8,15.8,0,0,0-7.7-5.7Z"/><polygon class="cls-6" points="296.5 371 303.4 390.8 269 396.3 266.9 373.4 296.5 371"/><polygon class="cls-6" points="200.9 370.6 194 390.4 228.4 396 230.5 373.1 200.9 370.6"/><path class="cls-6" d="M233.6,373.4h29.2c.8,7.7,1.6,15.4,2.5,23.1H231.2Z"/><path class="cls-7" d="M182.8,439.7h0c.2.4,11.4,6.8,11.4,6.8l12.7-7.8"/><path class="cls-8" d="M189,464.4c3.4,3,10,2.8,13.3-.3,7.4-6.8-1.4-27.8-6.8-27.7S181.7,458,189,464.4Z"/><path class="cls-7" d="M205,456.9c1.1-1.8-2.7-20.8-9.5-20.5s-10.3,19.9-9.3,21.2Z"/><path class="cls-9" d="M203.7,447.4s-2.5-10.9-8.2-11-8.3,11.6-8.3,11.6Z"/><path class="cls-7" d="M153.3,434.8h0c.2.3,8.8,4.7,8.8,4.7l9.3-6.1"/><path class="cls-8" d="M158.7,453.2c2.6,2.1,7.5,1.7,9.9-.7,5.4-5.3-1.7-20.8-5.8-20.6S153,448.5,158.7,453.2Z"/><path class="cls-7" d="M170.5,447.1c.7-1.4-2.6-15.6-7.7-15.2s-7.2,15.2-6.4,16.2Z"/><path class="cls-9" d="M169.2,440s-2.1-8.2-6.4-8.1-5.9,8.9-5.9,8.9Z"/><path class="cls-7" d="M317.5,439.7h0c-.3.4-11.4,6.8-11.4,6.8l-12.8-7.8"/><path class="cls-8" d="M311.3,464.4c-3.4,3-10,2.8-13.3-.3-7.4-6.8,1.3-27.8,6.8-27.7S318.6,458,311.3,464.4Z"/><path class="cls-7" d="M295.3,456.9c-1.1-1.8,2.7-20.8,9.5-20.5s10.3,19.9,9.2,21.2Z"/><path class="cls-9" d="M296.6,447.4s2.4-10.9,8.2-11S313,448,313,448Z"/><path class="cls-7" d="M346.9,434.8h0c-.2.3-8.7,4.7-8.7,4.7l-9.4-6.1"/><path class="cls-8" d="M341.6,453.2c-2.6,2.1-7.5,1.7-9.9-.7-5.4-5.3,1.7-20.8,5.8-20.6S347.3,448.5,341.6,453.2Z"/><path class="cls-7" d="M329.8,447.1c-.7-1.4,2.6-15.6,7.7-15.2s7.2,15.2,6.4,16.2Z"/><path class="cls-9" d="M331,440s2.2-8.2,6.5-8.1,5.9,8.9,5.9,8.9Z"/></g></svg>