<svg xmlns="http://www.w3.org/2000/svg" viewBox="0 0 460 460"><defs><style>.cls-1{fill:#414242;}.cls-2{fill:#fff;}</style></defs><title>panda</title><g id="panda-basique"><circle class="cls-1" cx="118.6" cy="46.6" r="40.6"/><circle class="cls-1" cx="358" cy="46" r="40.6"/><path class="cls-1" d="M428.6,297.7,326.1,215.9h-1.2C301.6,229.7,271.5,238,235,238c-32.5,0-60.5-7.8-82.7-21h-.5L44,295c-10.1,11.3-3.1,65.6,32.9,47.6L126,318l12.9,116.4c.6,31.7,48.5,43.6,68-5,6-14.8,19.4-15.9,31.6-15.4,14.2.6,26.7,4.9,34,21,20,44.3,64.9,26.5,64.5.3L350,318s32.9,21.3,54.6,26.6C440.5,353.3,442.8,306.4,428.6,297.7Z"/><path class="cls-2" d="M324.9,215.9C362.3,193.8,382,157.4,382,118,382,53.9,317.5,2,238,2S94,53.9,94,118c0,40.1,21.2,77,58.3,99,22.2,13.2,50.2,21,82.7,21C271.5,238,301.6,229.7,324.9,215.9Z"/><path class="cls-2" d="M246.7,389.1c74,2.8,96-10,57-85-18-55.2-96.9-60.9-130-2C135.4,370.3,148.8,401.5,246.7,389.1Z"/><ellipse class="cls-1" cx="238" cy="159" rx="32" ry="22"/><path class="cls-1" d="M328.3,101.1c-23.6-29.6-32.5-26.8-47.6-14.7-10.3,8.1-13.8,16.9-7.7,30.8a24,24,0,0,1,32.9,35,29.7,29.7,0,0,1-5.9,4.1c13.5,18.2,17.2,23.7,29.5,13.9,15.1-12,22.3-39.4-1.2-69.1Z"/><path class="cls-1" d="M147.2,102.1c-23.6,29.6-16.4,57.1-1.2,69.1,12.3,9.8,16,4.3,29.5-13.9a27.1,27.1,0,0,1-5.9-4.1,24,24,0,0,1,32.9-35c6.1-13.9,2.5-22.7-7.7-30.8-15.2-12.1-24-14.9-47.6,14.7Z"/></g></svg>