<svg xmlns="http://www.w3.org/2000/svg" viewBox="0 0 460 460"><defs><style>.cls-1{fill:#2a2d59;}.cls-2,.cls-8{fill:#fff;}.cls-3{fill:#5e74f7;}.cls-4{fill:#564ef9;}.cls-5{fill:#7c85fc;}.cls-6{fill:none;stroke:#a81e49;stroke-linecap:round;stroke-miterlimit:10;stroke-width:2px;}.cls-7{fill:#fffb69;}.cls-8{font-size:29px;font-family:QuicksandBook-Regular, Quicksand;}.cls-9{letter-spacing:-0.07em;}.cls-10{letter-spacing:-0.04em;}.cls-11{letter-spacing:-0.02em;}</style></defs><title>panda</title><g id="panda-eau"><circle class="cls-1" cx="143" cy="46.1" r="40.6"/><circle class="cls-1" cx="382.3" cy="45.5" r="40.6"/><path class="cls-1" d="M452.9,297.2,350.5,215.4h-1.2c-23.3,13.8-53.5,22.1-90,22.1-32.5,0-60.4-7.8-82.6-21h-.6l-107.8,78c-10,11.3-3.1,65.6,32.9,47.6l49.1-24.6,13,116.4c.6,31.7,48.5,43.6,68-5,5.9-14.8,19.3-15.9,31.5-15.4,14.3.6,26.8,4.9,34,21,20,44.3,65,26.5,64.5.3l13-117.3s32.9,21.3,54.7,26.6C464.9,352.8,467.2,305.9,452.9,297.2Z"/><path class="cls-2" d="M349.3,215.4c37.3-22.1,57-58.5,57-97.9,0-64.1-64.4-116-144-116s-144,51.9-144,116c0,40.1,21.2,77,58.4,99,22.2,13.2,50.1,21,82.6,21C295.8,237.5,326,229.2,349.3,215.4Z"/><path class="cls-2" d="M271,388.6c74,2.8,96-10,57-85-17.9-55.2-96.9-60.9-130-2C159.7,369.8,173.1,401,271,388.6Z"/><ellipse class="cls-1" cx="262.3" cy="158.5" rx="32" ry="22"/><path class="cls-1" d="M352.6,100.6C329,71,320.2,73.8,305,85.9c-10.2,8.1-13.8,16.9-7.7,30.8a24,24,0,0,1,32.9,35,24.9,24.9,0,0,1-5.9,4.1c13.5,18.2,17.2,23.7,29.5,13.9,15.2-12,22.4-39.4-1.2-69.1Z"/><path class="cls-1" d="M171.6,101.6c-23.6,29.6-16.4,57.1-1.3,69.1,12.3,9.8,16,4.3,29.5-13.9a29.7,29.7,0,0,1-5.9-4.1,24,24,0,0,1,32.9-35c6.1-13.9,2.6-22.7-7.7-30.8-15.1-12.1-24-14.9-47.5,14.7Z"/><g id="eac945e7-497e-4702-940f-23af80b7aba8"><polygon class="cls-3" points="85.4 193 89.4 182 73.7 185.1 79.5 194.1 85.4 193"/><path class="cls-4" d="M49,268.1c-7-36.3,4.8-71,34-76.7,16.7-3.3,33.5,3.4,46,16.5a77.4,77.4,0,0,1,19.8,39c7.1,36.3-10.5,63-39.8,68.7-12.7,2.2-26.2,6.6-36.6-.9-4.9-3.5-6.4.8-9.5-3.3C52.9,298.3,51.2,279.4,49,268.1Z"/><path class="cls-3" d="M149.4,248c-4.7-23.6-16.7-35-23.9-42.4-10.4-7.5-21-12.2-33.7-9.9a29.9,29.9,0,0,0-12.3,5.1,30.8,30.8,0,0,1,9.2-2.7c26.9-2.8,48.9,33.6,56.8,55.5a101.6,101.6,0,0,1,5.5,43.5c-8,4-16.4,13.4-31.5,18-5.5,1.7-10.6,3-15.3,4a10,10,0,0,0,3.4-.2c26.6-5,43.7-9.5,50.3-22.8C163.3,285.2,154.6,273.9,149.4,248Z"/><path class="cls-3" d="M151,297.1a101.6,101.6,0,0,0-5.5-43.5c-7.9-21.9-29.9-58.3-56.8-55.5a30.8,30.8,0,0,0-9.2,2.7c-5.8,2.7-13.4,8.1-20.9,19.1-3.8,9.6-7.4,25.3-2.5,48.9,5.5,26.8,1.7,41.1,11,47.6,7.6,5.3,19.9,6.3,37.1,2.7,4.7-1,9.8-2.3,15.3-4C134.6,310.5,143,301.1,151,297.1Z"/><ellipse class="cls-5" cx="129.3" cy="298.5" rx="10" ry="5" transform="translate(-195.9 291.7) rotate(-65.4)"/><ellipse class="cls-5" cx="133.7" cy="279.3" rx="3" ry="4" transform="translate(-50.8 30.7) rotate(-11)"/><path class="cls-6" d="M81.1,191.8s13.9-33.3,1.1-67.5-43.4-24.2-47.3-23.4"/><path class="cls-6" d="M76.1,192.4s10.2,0,11.8-2.3"/></g><path class="cls-7" d="M12.3,89.5a3.5,3.5,0,0,1,4.8-1.3l4.6,2.5a3.5,3.5,0,0,1-3.4,6.2l-4.6-2.5A3.5,3.5,0,0,1,12,92.3,3.5,3.5,0,0,1,12.3,89.5Z"/><path class="cls-7" d="M2.1,110.3a3.6,3.6,0,0,1,2.5-4.4l13.1-3.8a3.6,3.6,0,0,1,4.4,2.4,3.8,3.8,0,0,1-2.4,4.5L6.5,112.7a3.5,3.5,0,0,1-4.4-2.4Z"/><path class="cls-7" d="M20.3,117.6l2.6-4.6a3.6,3.6,0,1,1,6.2,3.5l-2.5,4.6a3.8,3.8,0,0,1-2.2,1.7,3.7,3.7,0,0,1-4.4-2.5A4.2,4.2,0,0,1,20.3,117.6Z"/><path class="cls-7" d="M37.8,86.1l2.6-4.6A3.6,3.6,0,1,1,46.6,85l-2.5,4.5a3.4,3.4,0,0,1-2.2,1.7,3.5,3.5,0,0,1-4.4-2.4A3.6,3.6,0,0,1,37.8,86.1Z"/><path class="cls-7" d="M24.5,69.9a3.6,3.6,0,0,1,4.4,2.5l3.8,13.1a3.6,3.6,0,0,1-2.5,4.4,3.5,3.5,0,0,1-4.4-2.4L22,74.3A3.6,3.6,0,0,1,24.5,69.9Z"/><text class="cls-8" transform="translate(57.7 269.6) rotate(-10)"><tspan class="cls-9">W</tspan><tspan x="29.9" y="0">a</tspan><tspan class="cls-10" x="47.9" y="0">t</tspan><tspan class="cls-11" x="58.3" y="0">e</tspan><tspan x="75.4" y="0">r</tspan></text></g></svg>