<svg xmlns="http://www.w3.org/2000/svg" viewBox="0 0 460 460"><defs><style>.cls-1{fill:#3b724a;}.cls-2{fill:#fff;}.cls-3{fill:#6f9b7d;}.cls-4{fill:#74e8a3;}</style></defs><title>panda</title><g id="panda-bambou"><circle class="cls-1" cx="141.6" cy="46.6" r="40.6"/><circle class="cls-1" cx="381" cy="46" r="40.6"/><path class="cls-1" d="M451.6,297.7,349.1,215.9h-1.2C324.6,229.7,294.5,238,258,238c-32.5,0-60.5-7.8-82.7-21h-.5L67,295c-10.1,11.3-3.1,65.6,32.9,47.6L149,318l12.9,116.4c.6,31.7,48.5,43.6,68-5,6-14.8,19.4-15.9,31.6-15.4,14.2.6,26.7,4.9,34,21,20,44.3,64.9,26.5,64.5.3L373,318s32.9,21.3,54.6,26.6C463.5,353.3,465.8,306.4,451.6,297.7Z"/><path class="cls-2" d="M347.9,215.9C385.3,193.8,405,157.4,405,118,405,53.9,340.5,2,261,2S117,53.9,117,118c0,40.1,21.2,77,58.3,99,22.2,13.2,50.2,21,82.7,21C294.5,238,324.6,229.7,347.9,215.9Z"/><path class="cls-2" d="M269.7,389.1c74,2.8,96-10,57-85-18-55.2-96.9-60.9-130-2C158.4,370.3,171.8,401.5,269.7,389.1Z"/><ellipse class="cls-1" cx="261" cy="159" rx="32" ry="22"/><path class="cls-1" d="M351.3,101.1c-23.6-29.6-32.5-26.8-47.6-14.7-10.3,8.1-13.8,16.9-7.7,30.8a24,24,0,0,1,32.9,35,29.7,29.7,0,0,1-5.9,4.1c13.5,18.2,17.2,23.7,29.5,13.9,15.1-12,22.3-39.4-1.2-69.1Z"/><path class="cls-1" d="M170.2,102.1c-23.6,29.6-16.4,57.1-1.2,69.1,12.3,9.8,16,4.3,29.5-13.9a27.1,27.1,0,0,1-5.9-4.1,24,24,0,0,1,32.9-35c6.1-13.9,2.5-22.7-7.7-30.8-15.2-12.1-24-14.9-47.6,14.7Z"/><polygon class="cls-3" points="93.2 270.1 134.9 363.8 115.5 372.4 73.8 278.7 77.7 261.5 93.2 270.1"/><polygon class="cls-3" points="21.3 108.7 57.2 189.4 53.3 206.6 37.8 198 1.9 117.3 21.3 108.7"/><rect class="cls-4" x="54.9" y="189.9" width="21.2" height="88.37" transform="translate(-89.5 46.9) rotate(-24)"/><path class="cls-3" d="M98.7,208.9a50.5,50.5,0,0,1-21.3,25.9c-3.2-10-2.9-21.9,1.5-33.5s12.3-20.7,21.3-25.9C103.4,185.3,103.2,197.3,98.7,208.9Z"/></g></svg>