<svg xmlns="http://www.w3.org/2000/svg" viewBox="0 0 460 460"><defs><style>.cls-1{fill:#ff4a6d;}.cls-2{fill:#414242;}.cls-3{fill:#fff;}.cls-4{fill:#fffcbb;}</style></defs><title>panda</title><g id="panda-super"><polygon class="cls-1" points="414.7 445.2 50.7 445.2 153.7 232.5 325 231.5 414.7 445.2"/><circle class="cls-2" cx="118" cy="46.9" r="40.6"/><circle class="cls-2" cx="357.4" cy="46.2" r="40.6"/><path class="cls-2" d="M427.9,297.9,325.5,216.1h-1.2c-23.3,13.8-53.4,22-89.9,22-32.6,0-60.5-7.8-82.7-20.9h-.5L43.4,295.2c-10.1,11.3-3.2,65.6,32.8,47.6l49.2-24.6,12.9,116.4c.6,31.8,48.5,43.6,68-5,5.9-14.7,19.4-15.9,31.6-15.4,14.2.6,26.7,4.9,34,21,19.9,44.3,64.9,26.5,64.4.3l13.1-117.3s32.8,21.3,54.6,26.6C439.9,353.5,442.2,306.6,427.9,297.9Z"/><path class="cls-3" d="M324.3,216.2c37.3-22.2,57.1-58.5,57.1-98,0-64-64.5-116-144-116s-144,52-144,116c0,40.1,21.1,77,58.3,99.1,22.2,13.1,50.1,20.9,82.7,20.9C270.9,238.2,301,230,324.3,216.2Z"/><ellipse class="cls-2" cx="237.4" cy="159.2" rx="32" ry="22"/><path class="cls-2" d="M327.6,101.3C304,71.7,295.2,74.5,280.1,86.6c-10.3,8.2-13.8,16.9-7.8,30.9a24,24,0,1,1,32.9,34.9,22.3,22.3,0,0,1-5.9,4.1c13.5,18.2,17.3,23.7,29.5,14,15.2-12.1,22.4-39.5-1.2-69.2Z"/><path class="cls-2" d="M146.6,102.3c-23.6,29.7-16.4,57.1-1.2,69.2,12.2,9.7,16,4.2,29.5-14a22.3,22.3,0,0,1-5.9-4.1,24,24,0,1,1,32.9-34.9c6-14,2.5-22.7-7.7-30.9-15.2-12.1-24-14.9-47.6,14.7Z"/><polygon class="cls-3" points="237.4 254.8 261.7 304.1 316 312 276.7 350.3 286 404.4 237.4 378.9 188.8 404.4 198 350.3 158.7 312 213.1 304.1 237.4 254.8"/><circle class="cls-4" cx="155.7" cy="231.5" r="19.3"/><circle class="cls-4" cx="325.7" cy="232.5" r="19.3"/></g></svg>