<svg xmlns="http://www.w3.org/2000/svg" viewBox="0 0 460 460"><defs><style>.cls-1{fill:#5b362a;}.cls-2{fill:#fff;}.cls-3{fill:#ff4a6d;}.cls-4{fill:#fffb69;}</style></defs><title>panda</title><g id="panda-artifice"><circle class="cls-1" cx="141.6" cy="46.6" r="40.6"/><circle class="cls-1" cx="381" cy="46" r="40.6"/><path class="cls-1" d="M451.6,297.7,349.1,215.9h-1.2C324.6,229.7,294.5,238,258,238c-32.5,0-60.5-7.8-82.7-21h-.5L67,295c-10.1,11.3-3.1,65.6,32.9,47.6L149,318l12.9,116.4c.6,31.7,48.5,43.6,68-5,6-14.8,19.4-15.9,31.6-15.4,14.2.6,26.7,4.9,34,21,20,44.3,64.9,26.5,64.5.3L373,318s32.8,21.3,54.6,26.6C463.5,353.3,465.8,306.4,451.6,297.7Z"/><path class="cls-2" d="M347.9,215.9C385.3,193.8,405,157.4,405,118,405,53.9,340.5,2,261,2S117,53.9,117,118c0,40.1,21.2,77,58.3,99,22.2,13.2,50.2,21,82.7,21C294.5,238,324.6,229.7,347.9,215.9Z"/><path class="cls-2" d="M269.7,389.1c74,2.8,96-10,57-85-18-55.2-96.9-60.9-130-2C158.4,370.3,171.8,401.5,269.7,389.1Z"/><ellipse class="cls-1" cx="261" cy="159" rx="32" ry="22"/><path class="cls-1" d="M351.3,101.1c-23.6-29.6-32.5-26.8-47.6-14.7-10.3,8.1-13.8,16.9-7.7,30.8a24,24,0,0,1,32.9,35,29.7,29.7,0,0,1-5.9,4.1c13.5,18.2,17.2,23.7,29.5,13.9,15.1-12,22.3-39.4-1.2-69.1Z"/><path class="cls-1" d="M170.2,102.1c-23.6,29.6-16.4,57.1-1.2,69.1,12.3,9.8,16,4.3,29.5-13.9a27.1,27.1,0,0,1-5.9-4.1,24,24,0,0,1,32.9-35c6.1-13.9,2.5-22.7-7.7-30.8-15.2-12.1-24-14.9-47.6,14.7Z"/><path class="cls-1" d="M28.5,303.6a3.5,3.5,0,0,1,1.2-6.4l17.2-3.7h0a15.4,15.4,0,0,0,11.8-18.2L56.5,265a3.5,3.5,0,0,1,2.7-4.1,3.5,3.5,0,0,1,4.3,2.7l2.2,10.2h0a22.6,22.6,0,0,1-17.3,26.7l-17.3,3.6a3,3,0,0,1-2.6-.5Z"/><path class="cls-3" d="M110.1,253.6,46.4,267.2,20.2,143.9l63.7-13.5Z"/><path class="cls-3" d="M30.5,63.4,41.7,61l53.6,50.3L1.9,131.2Z"/><path class="cls-1" d="M98.8,127.2,5.3,147.1,1.9,131.2l93.5-19.9Z"/><path class="cls-1" d="M113.3,373.8,88.7,258.2l21.4-4.5,24.6,115.6Z"/><path class="cls-1" d="M27.8,179.9l59.3-34.1L90.8,163,31.5,197.1Z"/><path class="cls-1" d="M37,223l59.3-34.1,3.6,17.2L40.6,240.2Z"/><path class="cls-4" d="M6.7,305.7a3.7,3.7,0,0,1,2.8-4.3l5.1-1a3.5,3.5,0,0,1,4.2,2.7,3.5,3.5,0,0,1-2.7,4.2l-5.2,1.1a3.4,3.4,0,0,1-2.6-.5A3.6,3.6,0,0,1,6.7,305.7Z"/><path class="cls-4" d="M12.6,328a3.6,3.6,0,0,1-1-4.9L19,311.6a3.6,3.6,0,0,1,4.9-1,3.5,3.5,0,0,1,1.1,4.9L17.6,327a3.7,3.7,0,0,1-5,1Z"/><path class="cls-4" d="M31.2,321.6l-1.1-5.2a3.6,3.6,0,0,1,7-1.4l1.1,5.1a3.7,3.7,0,0,1-.5,2.7,3.7,3.7,0,0,1-5,1A3.4,3.4,0,0,1,31.2,321.6Z"/><path class="cls-4" d="M23.7,286.3l-1.1-5.1a3.5,3.5,0,0,1,2.8-4.2,3.5,3.5,0,0,1,4.2,2.7l1.1,5.1a3.6,3.6,0,0,1-.5,2.7,3.7,3.7,0,0,1-5,1.1A4.1,4.1,0,0,1,23.7,286.3Z"/><path class="cls-4" d="M3,282.9a3.7,3.7,0,0,1,5-1.1l11.4,7.5a3.5,3.5,0,0,1,1.1,4.9,3.7,3.7,0,0,1-5,1.1L4.1,287.8A3.6,3.6,0,0,1,3,282.9Z"/></g></svg>