<svg id="panda-sarbacane" xmlns="http://www.w3.org/2000/svg" viewBox="0 0 460 460"><defs><style>.cls-1{fill:#ff7139;}.cls-2{fill:#fff;}.cls-3{fill:#6f9b7d;}.cls-4{fill:#74e8a3;}</style></defs><title>panda</title><circle class="cls-1" cx="142.1" cy="46.6" r="40.6"/><circle class="cls-1" cx="381.5" cy="46" r="40.6"/><path class="cls-1" d="M452.1,297.7,349.6,215.9h-1.2C325.1,229.7,295,238,258.5,238c-32.5,0-60.5-7.8-82.7-21h-.5L67.5,295c-10.1,11.3-3.1,65.6,32.9,47.6L149.5,318l12.9,116.4c.6,31.7,48.5,43.6,68-5,6-14.8,19.4-15.9,31.6-15.4,14.2.6,26.7,4.9,34,21,20,44.3,64.9,26.5,64.5.3l13-117.3s32.9,21.3,54.6,26.6C464,353.3,466.3,306.4,452.1,297.7Z"/><path class="cls-2" d="M348.4,215.9c37.4-22.1,57.1-58.5,57.1-97.9,0-64.1-64.5-116-144-116s-144,51.9-144,116c0,40.1,21.2,77,58.3,99,22.2,13.2,50.2,21,82.7,21C295,238,325.1,229.7,348.4,215.9Z"/><path class="cls-2" d="M270.2,389.1c74,2.8,96-10,57-85-18-55.2-96.9-60.9-130-2C158.9,370.3,172.3,401.5,270.2,389.1Z"/><ellipse class="cls-1" cx="261.5" cy="159" rx="32" ry="22"/><path class="cls-1" d="M351.8,101.1c-23.6-29.6-32.5-26.8-47.6-14.7-10.3,8.1-13.8,16.9-7.7,30.8a24,24,0,0,1,32.9,35,29.7,29.7,0,0,1-5.9,4.1C337,174.5,340.7,180,353,170.2c15.1-12,22.3-39.4-1.2-69.1Z"/><path class="cls-1" d="M170.7,102.1c-23.6,29.6-16.4,57.1-1.2,69.1,12.3,9.8,16,4.3,29.5-13.9a27.1,27.1,0,0,1-5.9-4.1,24,24,0,0,1,32.9-35c6.1-13.9,2.5-22.7-7.7-30.8-15.2-12.1-24-14.9-47.6,14.7Z"/><polygon class="cls-3" points="151.7 202.5 254.2 200.7 254.5 221.9 152 223.7 137.7 213.4 151.7 202.5"/><rect class="cls-4" x="63.5" y="203.3" width="88.4" height="21.21" transform="translate(-3.7 1.9) rotate(-1)"/><path class="cls-3" d="M97.5,173.5c8.9,8.6,14.2,19.3,15.5,29.7-10.4-.9-21.3-5.8-30.3-14.5S68.5,169.4,67.2,159C77.6,159.9,88.5,164.8,97.5,173.5Z"/><path class="cls-1" d="M284.2,186.4a51.3,51.3,0,0,0-10.3,3.2A34.7,34.7,0,0,0,265,195a30,30,0,0,0-6.7,7.6,17.6,17.6,0,0,0-2.6,8.9,4,4,0,0,0,0,1.1,4.5,4.5,0,0,1,.1,1.1,16.6,16.6,0,0,0,.6,2.1,9.3,9.3,0,0,1,.5,1l.5.9.2.4.4.5.6.8a30.6,30.6,0,0,0,7,5.7,50.4,50.4,0,0,0,9,4.5c3.2,1.4,6.7,2.6,10.2,4.1v.8a39.6,39.6,0,0,1-11.4.6,33.6,33.6,0,0,1-11.5-2.9,22,22,0,0,1-9.7-8.3,20,20,0,0,1-2.8-12.8,23.6,23.6,0,0,1,4.6-11.4,36.1,36.1,0,0,1,8.7-7.9,42.8,42.8,0,0,1,21.5-6.2Z"/></svg>